<?xml version="1.0" encoding="UTF-8" standalone="no"?>
<svg
   xmlns:dc="http://purl.org/dc/elements/1.1/"
   xmlns:cc="http://creativecommons.org/ns#"
   xmlns:rdf="http://www.w3.org/1999/02/22-rdf-syntax-ns#"
   xmlns:svg="http://www.w3.org/2000/svg"
   xmlns="http://www.w3.org/2000/svg"
   xmlns:sodipodi="http://sodipodi.sourceforge.net/DTD/sodipodi-0.dtd"
   xmlns:inkscape="http://www.inkscape.org/namespaces/inkscape"
   version="1.1"
   id="svg2"
   viewBox="0 0 318.89764 318.89764"
   height="90mm"
   width="90mm"
   inkscape:version="0.91 r13725"
   sodipodi:docname="recover-grub-icon.svg">
  <sodipodi:namedview
     pagecolor="#ffffff"
     bordercolor="#666666"
     borderopacity="1"
     objecttolerance="10"
     gridtolerance="10"
     guidetolerance="10"
     inkscape:pageopacity="0"
     inkscape:pageshadow="2"
     inkscape:window-width="1366"
     inkscape:window-height="708"
     id="namedview39"
     showgrid="false"
     inkscape:zoom="0.37002469"
     inkscape:cx="-95.007016"
     inkscape:cy="439.65135"
     inkscape:window-x="0"
     inkscape:window-y="26"
     inkscape:window-maximized="1"
     inkscape:current-layer="svg2" />
  <defs
     id="defs4" />
  <metadata
     id="metadata7">
    <rdf:RDF>
      <cc:Work
         rdf:about="">
        <dc:format>image/svg+xml</dc:format>
        <dc:type
           rdf:resource="http://purl.org/dc/dcmitype/StillImage" />
        <dc:title />
      </cc:Work>
    </rdf:RDF>
  </metadata>
  <g
     id="g3345"
     transform="translate(-299.51398,-616.21639)">
    <path
       inkscape:connector-curvature="0"
       id="path3363"
       d="m 479.82246,561.42807 c -11.31938,3.95597 -17.59745,-0.65828 -22.22336,-8.08122 -13.60777,2.22638 -18.67644,-3.42949 -23.73859,-9.09138 -6.32762,0.45451 -12.80157,1.83576 -17.17259,-10.10152 -14.00081,-6.428 -27.61817,-13.2212 -27.77919,-32.82996 -8.72585,-17.19765 -10.75905,-33.47217 0,-47.98225 1.16196,-17.85528 7.40595,-33.38507 29.29442,-39.90102 39.7776,-27.0693 46.40847,-11.2265 63.63961,-11.61676 14.87963,-1.41373 23.45797,5.69782 30.30458,15.15229 17.84911,7.23943 15.80962,14.65742 17.67767,21.71828 5.38335,14.7106 12.90081,29.28783 11.11167,44.44671 -2.91997,27.78235 -35.7808,35.01447 -51.51778,6.06092 -6.16331,-4.64549 -10.08137,-11.25557 -5.55583,-25.25381 0,0 -12.72142,-0.74373 -15.15229,-19.1929 -1.51523,0.94753 -3.03046,1.83927 -4.54569,-0.50508 -3.03014,5.76648 -4.77598,12.33565 -18.18274,11.61675 0.89253,6.6176 -1.76342,12.56985 -11.61676,17.1726 6.97527,3.86777 6.26273,9.83221 6.06092,15.65736 10.38394,-0.11405 13.23997,7.29979 17.17259,13.63706 12.49034,-2.07486 14.75222,4.374 19.69797,8.5863 12.78824,2.47707 21.01378,10.02381 27.7792,19.1929 17.23703,10.97835 20.9831,21.67268 -25.25381,31.31473 z"
       style="fill:#000000;fill-opacity:1;fill-rule:evenodd;stroke:#000000;stroke-width:1px;stroke-linecap:butt;stroke-linejoin:miter;stroke-opacity:1" />
    <path
       inkscape:connector-curvature="0"
       id="path4165"
       d="m 489.92398,490.21231 c 11.95761,-12.79113 27.79455,-21.70292 50.50763,-23.73858"
       style="fill:none;fill-rule:evenodd;stroke:#ffffff;stroke-width:4.5;stroke-linecap:round;stroke-linejoin:round;stroke-miterlimit:4;stroke-dasharray:none;stroke-opacity:1" />
    <path
       inkscape:connector-curvature="0"
       id="path4171"
       d="m 481.42857,464.50506 c 13.14562,-16.90654 29.9855,-23.46916 47.85714,-27.14286"
       style="fill:none;fill-rule:evenodd;stroke:#ffffff;stroke-width:3.4000001;stroke-linecap:round;stroke-linejoin:miter;stroke-miterlimit:4;stroke-dasharray:none;stroke-opacity:1" />
    <path
       inkscape:connector-curvature="0"
       id="path4173"
       d="m 467.98847,448.3017 c 10.33097,-16.57711 24.88759,-27.48106 44.02279,-32.238"
       style="fill:none;fill-rule:evenodd;stroke:#ffffff;stroke-width:3.66036248;stroke-linecap:round;stroke-linejoin:miter;stroke-miterlimit:4;stroke-dasharray:none;stroke-opacity:1" />
    <path
       inkscape:connector-curvature="0"
       id="path4175"
       d="M 478.57143,400.93363 C 467.6912,414.3819 462.22204,434.23825 465,451.29077"
       style="fill:none;fill-rule:evenodd;stroke:#ffffff;stroke-width:3.4000001;stroke-linecap:round;stroke-linejoin:miter;stroke-miterlimit:4;stroke-dasharray:none;stroke-opacity:1" />
    <path
       inkscape:connector-curvature="0"
       id="path4177"
       d="M 448.92857,459.86221 C 444.6492,444.79015 430.89584,425.77262 417.14286,411.64792"
       style="fill:none;fill-rule:evenodd;stroke:#ffffff;stroke-width:3.4000001;stroke-linecap:round;stroke-linejoin:miter;stroke-miterlimit:4;stroke-dasharray:none;stroke-opacity:1" />
    <path
       inkscape:connector-curvature="0"
       id="path4211"
       d="m 440.00744,474.50506 c -18.11027,-1.84964 -40.15824,-5.00259 -54.29315,-21.42857"
       style="fill:none;fill-rule:evenodd;stroke:#ffffff;stroke-width:3.79999995;stroke-linecap:round;stroke-linejoin:miter;stroke-miterlimit:4;stroke-dasharray:none;stroke-opacity:1" />
    <path
       inkscape:connector-curvature="0"
       id="path4213"
       d="m 440.71429,487.3622 c -15.36837,8.74394 -31.55983,16.17095 -53.57143,14.28572"
       style="fill:none;fill-rule:evenodd;stroke:#ffffff;stroke-width:3.79999995;stroke-linecap:round;stroke-linejoin:miter;stroke-miterlimit:4;stroke-dasharray:none;stroke-opacity:1" />
    <path
       inkscape:connector-curvature="0"
       id="path4215"
       d="M 457.9438,499.46174 C 449.14212,513.51272 433.22194,525.9199 415,535.93363"
       style="fill:none;fill-rule:evenodd;stroke:#ffffff;stroke-width:3.79999995;stroke-linecap:round;stroke-linejoin:miter;stroke-miterlimit:4;stroke-dasharray:none;stroke-opacity:1" />
    <path
       inkscape:connector-curvature="0"
       id="path4217"
       d="m 431.13271,546.7779 c 17.08971,-5.61791 32.96005,-19.45406 46.01015,-35.84427"
       style="fill:none;fill-rule:evenodd;stroke:#ffffff;stroke-width:3.79999995;stroke-linecap:round;stroke-linejoin:miter;stroke-miterlimit:4;stroke-dasharray:none;stroke-opacity:1" />
    <path
       inkscape:connector-curvature="0"
       id="path4219"
       d="m 457.2654,556.06362 c 14.43179,-15.92025 34.49388,-24.78237 50.25998,-27.3595"
       style="fill:none;fill-rule:evenodd;stroke:#ffffff;stroke-width:3.79999995;stroke-linecap:round;stroke-linejoin:miter;stroke-miterlimit:4;stroke-dasharray:none;stroke-opacity:1" />
  </g>
  <g
     id="g4218"
     transform="translate(-54.285714,-30.60743)">
    <g
       id="g3358"
       transform="translate(-266.95723,-293.27047)">
      <path
         inkscape:connector-curvature="0"
         id="path3360"
         d="m 507.78023,556.38256 c -4.71224,16.99168 -45.55522,4.38723 -50.18113,-3.03571 -13.60777,2.22638 -18.67644,-3.42949 -23.73859,-9.09138 -6.32762,0.45451 -12.80157,1.83576 -17.17259,-10.10152 -14.00081,-6.428 -27.61817,-13.2212 -27.77919,-32.82996 -8.72585,-17.19765 -10.75905,-33.47217 0,-47.98225 1.16196,-17.85528 7.40595,-33.38507 29.29442,-39.90102 39.7776,-27.0693 46.40847,-11.2265 63.63961,-11.61676 14.87963,-1.41373 23.45797,5.69782 30.30458,15.15229 17.84911,7.23943 15.80962,14.65742 17.67767,21.71828 5.38335,14.7106 12.90081,29.28783 11.11167,44.44671 -2.91997,27.78235 -35.7808,35.01447 -51.51778,6.06092 -6.16331,-4.64549 -10.08137,-11.25557 -5.55583,-25.25381 0,0 -12.72142,-0.74373 -15.15229,-19.1929 -1.51523,0.94753 -3.03046,1.83927 -4.54569,-0.50508 -3.03014,5.76648 -4.77598,12.33565 -18.18274,11.61675 0.89253,6.6176 -1.76342,12.56985 -11.61676,17.1726 6.97527,3.86777 6.26273,9.83221 6.06092,15.65736 10.38394,-0.11405 13.23997,7.29979 17.17259,13.63706 12.49034,-2.07486 14.75222,4.374 19.69797,8.5863 12.78824,2.47707 21.01378,10.02381 27.7792,19.1929 69.23683,-48.6145 60.90323,8.40305 2.70396,26.26922 z"
         style="fill:#000000;fill-opacity:1;fill-rule:evenodd;stroke:#000000;stroke-width:1px;stroke-linecap:butt;stroke-linejoin:miter;stroke-opacity:1" />
      <path
         inkscape:connector-curvature="0"
         id="path3362"
         d="m 489.92398,490.21231 c 11.95761,-12.79113 27.79455,-21.70292 50.50763,-23.73858"
         style="fill:none;fill-rule:evenodd;stroke:#ffffff;stroke-width:4.5;stroke-linecap:round;stroke-linejoin:round;stroke-miterlimit:4;stroke-dasharray:none;stroke-opacity:1" />
      <path
         inkscape:connector-curvature="0"
         id="path3364"
         d="m 481.42857,464.50506 c 13.14562,-16.90654 29.9855,-23.46916 47.85714,-27.14286"
         style="fill:none;fill-rule:evenodd;stroke:#ffffff;stroke-width:3.4000001;stroke-linecap:round;stroke-linejoin:miter;stroke-miterlimit:4;stroke-dasharray:none;stroke-opacity:1" />
      <path
         inkscape:connector-curvature="0"
         id="path3366"
         d="m 467.98847,448.3017 c 10.33097,-16.57711 24.88759,-27.48106 44.02279,-32.238"
         style="fill:none;fill-rule:evenodd;stroke:#ffffff;stroke-width:3.66036248;stroke-linecap:round;stroke-linejoin:miter;stroke-miterlimit:4;stroke-dasharray:none;stroke-opacity:1" />
      <path
         inkscape:connector-curvature="0"
         id="path3368"
         d="M 478.57143,400.93363 C 467.6912,414.3819 462.22204,434.23825 465,451.29077"
         style="fill:none;fill-rule:evenodd;stroke:#ffffff;stroke-width:3.4000001;stroke-linecap:round;stroke-linejoin:miter;stroke-miterlimit:4;stroke-dasharray:none;stroke-opacity:1" />
      <path
         inkscape:connector-curvature="0"
         id="path3370"
         d="M 448.92857,459.86221 C 444.6492,444.79015 430.89584,425.77262 417.14286,411.64792"
         style="fill:none;fill-rule:evenodd;stroke:#ffffff;stroke-width:3.4000001;stroke-linecap:round;stroke-linejoin:miter;stroke-miterlimit:4;stroke-dasharray:none;stroke-opacity:1" />
      <path
         inkscape:connector-curvature="0"
         id="path3372"
         d="m 440.00744,474.50506 c -18.11027,-1.84964 -40.15824,-5.00259 -54.29315,-21.42857"
         style="fill:none;fill-rule:evenodd;stroke:#ffffff;stroke-width:3.79999995;stroke-linecap:round;stroke-linejoin:miter;stroke-miterlimit:4;stroke-dasharray:none;stroke-opacity:1" />
      <path
         inkscape:connector-curvature="0"
         id="path3374"
         d="m 440.71429,487.3622 c -15.36837,8.74394 -31.55983,16.17095 -53.57143,14.28572"
         style="fill:none;fill-rule:evenodd;stroke:#ffffff;stroke-width:3.79999995;stroke-linecap:round;stroke-linejoin:miter;stroke-miterlimit:4;stroke-dasharray:none;stroke-opacity:1" />
      <path
         inkscape:connector-curvature="0"
         id="path3376"
         d="M 457.9438,499.46174 C 449.14212,513.51272 433.22194,525.9199 415,535.93363"
         style="fill:none;fill-rule:evenodd;stroke:#ffffff;stroke-width:3.79999995;stroke-linecap:round;stroke-linejoin:miter;stroke-miterlimit:4;stroke-dasharray:none;stroke-opacity:1" />
      <path
         inkscape:connector-curvature="0"
         id="path3378"
         d="m 431.13271,546.7779 c 17.08971,-5.61791 32.96005,-19.45406 46.01015,-35.84427"
         style="fill:none;fill-rule:evenodd;stroke:#ffffff;stroke-width:3.79999995;stroke-linecap:round;stroke-linejoin:miter;stroke-miterlimit:4;stroke-dasharray:none;stroke-opacity:1" />
      <path
         inkscape:connector-curvature="0"
         id="path3380"
         d="m 457.2654,556.06362 c 14.43179,-15.92025 29.94819,-24.52983 45.71429,-27.10696"
         style="fill:none;fill-rule:evenodd;stroke:#ffffff;stroke-width:3.79999995;stroke-linecap:round;stroke-linejoin:miter;stroke-miterlimit:4;stroke-dasharray:none;stroke-opacity:1" />
    </g>
    <path
       inkscape:connector-curvature="0"
       id="path3382"
       d="m 268.09187,216.43061 c 0,0 7.94102,-21.29886 19.69797,-29.29442 -6.50103,-9.57349 -12.76479,-19.01042 -4.54569,-32.82996 l -9.59645,3.53553 6.566,-43.94163 28.90401,32.68465 -9.02747,2.96918 c 14.30981,15.10072 11.11168,34.85026 11.11168,34.85026 9.23536,22.3764 -0.002,38.2416 -4.51504,47.87809 -0.11106,4.69251 -6.10292,17.85777 -19.37148,24.473 -12.85239,12.04064 -24.98369,19.97384 -55.37982,13.87691 z"
       style="fill:#000000;fill-opacity:1;fill-rule:evenodd;stroke:#000000;stroke-width:1px;stroke-linecap:butt;stroke-linejoin:miter;stroke-opacity:1" />
    <path
       inkscape:connector-curvature="0"
       id="path4184"
       d="m 239.64286,232.00505 c -4.43564,16.93564 -6.0344,31.0344 -7.14286,44.64286"
       style="fill:#ffffff;fill-opacity:1;fill-rule:evenodd;stroke:#ffffff;stroke-width:3;stroke-linecap:round;stroke-linejoin:miter;stroke-miterlimit:4;stroke-dasharray:none;stroke-opacity:1" />
    <path
       inkscape:connector-curvature="0"
       id="path4186"
       d="m 260.99529,218.14827 c 16.09751,9.7418 28.43277,33.74837 26.74238,52.06056"
       style="fill:none;fill-rule:evenodd;stroke:#ffffff;stroke-width:3;stroke-linecap:round;stroke-linejoin:miter;stroke-miterlimit:4;stroke-dasharray:none;stroke-opacity:1" />
    <path
       inkscape:connector-curvature="0"
       id="path4188"
       d="m 308.44889,237.5027 c -3.15242,-13.75078 -23.03941,-27.98387 -34.26471,-39.04369"
       style="fill:none;fill-rule:evenodd;stroke:#ffffff;stroke-width:3;stroke-linecap:round;stroke-linejoin:miter;stroke-miterlimit:4;stroke-dasharray:none;stroke-opacity:1" />
    <path
       inkscape:connector-curvature="0"
       id="path4190"
       d="m 284.61748,186.99019 c 11.85258,-5.76545 20.07715,-4.91282 31.45395,0.372"
       style="fill:none;fill-rule:evenodd;stroke:#ffffff;stroke-width:3;stroke-linecap:round;stroke-linejoin:miter;stroke-miterlimit:4;stroke-dasharray:none;stroke-opacity:1" />
    <path
       inkscape:connector-curvature="0"
       id="path4192"
       d="M 213.04121,56.599285 A 135.1649,134.95425 0 0 0 78.801631,177.19451 l 19.97688,0.38224 -17.42398,43.84685 A 135.1649,134.95425 0 0 0 213.04121,326.50783 135.1649,134.95425 0 0 0 345.33913,219.04152 l -17.59954,0.33788 19.16047,-45.34411 A 135.1649,134.95425 0 0 0 213.04121,56.599285 Z"
       style="fill:none;fill-opacity:1;stroke:#000000;stroke-width:19.45244598;stroke-linecap:round;stroke-miterlimit:4;stroke-dasharray:none;stroke-opacity:1" />
    <path
       inkscape:connector-curvature="0"
       id="path4216"
       d="m 258.3221,222.70073 c 2.57985,15.17905 10.26099,25.4169 -7.57615,57.07362"
       style="fill:none;fill-rule:evenodd;stroke:#ffffff;stroke-width:3.9000001;stroke-linecap:round;stroke-linejoin:miter;stroke-miterlimit:4;stroke-dasharray:none;stroke-opacity:1" />
  </g>
</svg>
